<?xml version="1.0" encoding="utf-8"?>
<!-- Generator: Adobe Illustrator 16.0.0, SVG Export Plug-In . SVG Version: 6.00 Build 0)  -->
<!DOCTYPE svg PUBLIC "-//W3C//DTD SVG 1.1//EN" "http://www.w3.org/Graphics/SVG/1.1/DTD/svg11.dtd">
<svg version="1.1" id="Layer_1" xmlns="http://www.w3.org/2000/svg" xmlns:xlink="http://www.w3.org/1999/xlink" x="0px" y="0px"
	 width="1010.949px" height="300px" viewBox="0 0 1010.949 300" enable-background="new 0 0 1010.949 300" xml:space="preserve">
<g>
	<path fill="#FFFFFF" d="M346.597,257.354l10.816,26.264h-6.199l-10.916-26.264H346.597z M248.814,81.011 M490.966,170.293h16.382
		v-65.177h22.705V90.723h-61.787v14.393h22.699V170.293z M583.044,170.293h54.293v-14.392h-37.914v-11.469h31.943v-14.04h-31.943
		v-25.277h36.273V90.723h-52.652V170.293z M734.087,145.488c9.83-4.448,15.334-12.289,15.334-24.693
		c0-19.422-13.344-30.072-35.576-30.072h-21.998v79.57h16.381v-19.775h5.617c1.52,0,3.16-0.116,4.678-0.352l13.107,20.126h18.961
		L734.087,145.488z M708.228,136.242v-31.126h5.148c13.109,0,19.189,4.447,19.189,15.679c0,11.236-5.85,15.447-19.189,15.447
		H708.228z M845.116,145.488c9.832-4.448,15.33-12.289,15.33-24.693c0-19.422-13.342-30.072-35.574-30.072h-21.998v79.57h16.383
		v-19.775h5.615c1.523,0,3.162-0.116,4.682-0.352l13.107,20.126h18.957L845.116,145.488z M819.257,136.242v-31.126h5.15
		c13.105,0,19.191,4.447,19.191,15.679c0,11.236-5.854,15.447-19.191,15.447H819.257z M906.886,170.293h15.795l3.742-9.01h32.301
		l3.74,9.01h17.205L943.274,90.02h-1.402L906.886,170.293z M931.925,147.593l5.736-13.809c2.338-5.615,4.678-14.277,4.678-14.277
		s2.459,8.662,4.801,14.277l5.729,13.809H931.925z M277.599,106.495l40.926,98.471h6.496L278.298,91.515h-1.402l-33,80.389h8.309
		L277.599,106.495z M59.001,172.843c14.275,0,24.689-7.958,24.689-21.063c0-11.938-6.787-18.488-20.01-24.339l-6.318-2.927
		c-8.895-4.096-12.639-7.254-12.639-14.275c0-6.787,4.799-11.351,12.639-11.351c7.488,0,11.701,3.744,14.742,8.658l6.789-4.213
		c-4.213-7.021-10.881-11.934-21.531-11.934c-11.938,0-20.947,7.606-20.947,19.073c0,11.116,6.201,16.616,17.553,21.765l6.32,2.926
		c9.945,4.447,14.977,8.54,14.977,16.616c0,8.426-7.252,13.574-16.5,13.574c-11.232,0-16.732-5.736-20.477-12.405l-7.021,3.745
		C35.48,165.119,43.787,172.843,59.001,172.843z M170.933,172.843c14.273,0,25.742-6.086,32.764-16.384l-6.553-4.562
		c-5.736,8.309-14.629,13.34-26.211,13.34c-18.607,0-32.064-14.16-32.064-33.117c0-18.957,13.457-33.114,32.064-33.114
		c11.465,0,20.008,4.913,25.158,12.52l6.434-4.679c-6.785-10.181-17.551-15.447-31.592-15.447c-22.588,0-40.84,16.731-40.84,40.721
		C130.093,156.109,148.345,172.843,170.933,172.843z M417.56,172.726h1.404V92.333h-7.84v53.712c0,3.394,0.584,9.01,0.584,9.01
		s-3.277-4.678-5.5-7.373l-47.508-56.167h-1.404v80.389h7.959v-53.71c0-3.394-0.705-9.009-0.705-9.009s3.277,4.681,5.5,7.371
		L417.56,172.726z M297.101,53.523l-11.283,27.487h5.889l11.406-27.487H297.101z M282.984,34.768L264.58,81.011h5.887l18.529-46.243
		H282.984z M249.783,81.011l24.543-60.679h-6.014l-24.416,60.679"/>
	<g>
		<defs>
			<path id="SVGID_1_" d="M31.693,239.738l4.607-2.666c1.215,1.979,2.789,3.436,5.58,3.436c2.348,0,3.842-1.176,3.842-2.791
				c0-1.939-1.537-2.627-4.125-3.76l-1.414-0.605c-4.082-1.74-6.793-3.924-6.793-8.531c0-4.248,3.236-7.482,8.289-7.482
				c3.598,0,6.186,1.254,8.047,4.527l-4.408,2.832c-0.969-1.74-2.021-2.426-3.639-2.426c-1.656,0-2.709,1.051-2.709,2.426
				c0,1.699,1.053,2.385,3.477,3.436l1.416,0.607c4.812,2.064,7.52,4.164,7.52,8.898c0,5.094-4.004,7.883-9.379,7.883
				C36.746,245.521,33.349,243.014,31.693,239.738z M62.095,231.41c0-8.129,6.311-14.113,14.234-14.113
				c7.926,0,14.234,5.984,14.234,14.113c0,8.127-6.309,14.111-14.234,14.111C68.406,245.521,62.095,239.537,62.095,231.41z
				 M84.742,231.41c0-5.137-3.398-9.059-8.412-9.059c-5.012,0-8.408,3.922-8.408,9.059c0,5.135,3.396,9.057,8.408,9.057
				C81.343,240.467,84.742,236.545,84.742,231.41z M102.609,217.662h5.66v22.523h12.457v4.971h-18.117V217.662z M131.398,235.209
				v-17.547h5.66v17.225c0,4.004,1.738,5.541,5.5,5.541c3.721,0,5.418-1.537,5.418-5.541v-17.225h5.662v17.547
				c0,6.955-4.812,10.312-11.08,10.312C136.208,245.521,131.398,242.164,131.398,235.209z M165.562,231.41
				c0-8.129,6.268-14.072,14.152-14.072c4.973,0,8.533,1.779,10.998,5.619l-4.326,3.074c-1.295-2.102-3.518-3.598-6.672-3.598
				c-4.973,0-8.328,3.84-8.328,8.977c0,5.135,3.355,9.057,8.328,9.057c3.559,0,5.539-1.697,7.078-4.045l4.406,3.035
				c-2.385,3.717-6.186,6.064-11.484,6.064C171.83,245.521,165.562,239.537,165.562,231.41z M202.761,217.662h5.662v27.494h-5.662
				V217.662z M220.55,231.41c0-8.129,6.307-14.113,14.232-14.113s14.234,5.984,14.234,14.113c0,8.127-6.309,14.111-14.234,14.111
				S220.55,239.537,220.55,231.41z M243.193,231.41c0-5.137-3.396-9.059-8.41-9.059c-5.012,0-8.41,3.922-8.41,9.059
				c0,5.135,3.398,9.057,8.41,9.057C239.796,240.467,243.193,236.545,243.193,231.41z M269.23,232.381
				c-1.375-1.295-3.273-3.762-3.273-3.762s0.404,3.033,0.404,5.014v11.523h-5.299v-27.738h0.566l13.869,13.02
				c1.334,1.256,3.236,3.762,3.236,3.762s-0.363-3.113-0.363-5.014v-11.523h5.295V245.4h-0.564L269.23,232.381z M296.644,217.662
				h18.195v4.973h-12.535v8.736h11.037v4.85h-11.037v3.965h13.102v4.971h-18.762V217.662z M325.712,239.738l4.609-2.666
				c1.215,1.979,2.791,3.436,5.582,3.436c2.342,0,3.84-1.176,3.84-2.791c0-1.939-1.537-2.627-4.123-3.76l-1.416-0.605
				c-4.084-1.74-6.793-3.924-6.793-8.531c0-4.248,3.234-7.482,8.287-7.482c3.602,0,6.188,1.254,8.049,4.527l-4.408,2.832
				c-0.969-1.74-2.021-2.426-3.641-2.426c-1.656,0-2.707,1.051-2.707,2.426c0,1.699,1.051,2.385,3.477,3.436l1.416,0.607
				c4.811,2.064,7.52,4.164,7.52,8.898c0,5.094-4.002,7.883-9.379,7.883C330.765,245.521,327.369,243.014,325.712,239.738z
				 M369.986,239.738l4.609-2.666c1.213,1.979,2.791,3.436,5.58,3.436c2.346,0,3.842-1.176,3.842-2.791
				c0-1.939-1.537-2.627-4.125-3.76l-1.414-0.605c-4.084-1.74-6.793-3.924-6.793-8.531c0-4.248,3.234-7.482,8.289-7.482
				c3.598,0,6.186,1.254,8.047,4.527l-4.408,2.832c-0.971-1.74-2.021-2.426-3.639-2.426c-1.658,0-2.709,1.051-2.709,2.426
				c0,1.699,1.051,2.385,3.475,3.436l1.416,0.607c4.812,2.064,7.523,4.164,7.523,8.898c0,5.094-4.006,7.883-9.383,7.883
				C375.041,245.521,371.644,243.014,369.986,239.738z M410.582,217.418h0.484l12.576,27.738h-5.945l-1.295-3.111h-11.158
				l-1.293,3.111h-5.461L410.582,217.418z M414.382,237.312l-1.98-4.771c-0.811-1.941-1.658-4.932-1.658-4.932
				s-0.811,2.99-1.617,4.932l-1.984,4.771H414.382z M437.023,222.635h-7.844v-4.973h21.35v4.973h-7.846v22.521h-5.66V222.635z
				 M461.931,217.662h18.193v4.973h-12.533v8.736h11.037v4.85h-11.037v3.965h13.098v4.971h-18.758V217.662z M493.183,217.662h5.662
				v22.523H511.3v4.971h-18.117V217.662z M523.226,217.662h5.66v27.494h-5.66V217.662z M548.212,222.635h-7.844v-4.973h21.348v4.973
				h-7.842v22.521h-5.662V222.635z M579.345,217.418h0.486l12.574,27.738h-5.943l-1.295-3.111h-11.16l-1.295,3.111h-5.459
				L579.345,217.418z M583.146,237.312l-1.982-4.771c-0.809-1.941-1.656-4.932-1.656-4.932s-0.809,2.99-1.619,4.932l-1.982,4.771
				H583.146z M603.36,217.662h5.662v22.523h12.455v4.971H603.36V217.662z M633.278,217.662h18.197v4.973H638.94v8.736h11.039v4.85
				H638.94v3.965h13.102v4.971h-18.764V217.662z M662.351,239.738l4.611-2.666c1.207,1.979,2.789,3.436,5.574,3.436
				c2.35,0,3.844-1.176,3.844-2.791c0-1.939-1.537-2.627-4.123-3.76l-1.418-0.605c-4.08-1.74-6.791-3.924-6.791-8.531
				c0-4.248,3.236-7.482,8.289-7.482c3.6,0,6.186,1.254,8.047,4.527l-4.404,2.832c-0.971-1.74-2.027-2.426-3.643-2.426
				c-1.656,0-2.709,1.051-2.709,2.426c0,1.699,1.053,2.385,3.477,3.436l1.418,0.607c4.809,2.064,7.52,4.164,7.52,8.898
				c0,5.094-4.002,7.883-9.381,7.883C667.403,245.521,664.011,243.014,662.351,239.738z M719.079,217.418h0.484l12.572,27.738
				h-5.941l-1.293-3.111h-11.162l-1.291,3.111h-5.461L719.079,217.418z M722.878,237.312l-1.982-4.771
				c-0.811-1.941-1.656-4.932-1.656-4.932s-0.809,2.99-1.617,4.932l-1.982,4.771H722.878z M743.091,217.662h7.602
				c7.686,0,12.293,4.002,12.293,10.635c0,6.631-4.646,10.594-12.293,10.594h-1.939v6.266h-5.662V217.662z M750.532,233.916
				c4.605,0,6.633-1.859,6.633-5.619c0-3.803-2.104-5.662-6.633-5.662h-1.779v11.281H750.532z M774.63,217.662h5.662v22.523h12.451
				v4.971H774.63V217.662z M804.669,217.662h5.664v27.494h-5.664V217.662z M822.46,231.41c0-8.129,6.27-14.072,14.152-14.072
				c4.971,0,8.533,1.779,10.998,5.619l-4.326,3.074c-1.295-2.102-3.518-3.598-6.672-3.598c-4.971,0-8.332,3.84-8.332,8.977
				c0,5.135,3.361,9.057,8.332,9.057c3.559,0,5.541-1.697,7.078-4.045l4.406,3.035c-2.385,3.717-6.186,6.064-11.484,6.064
				C828.729,245.521,822.46,239.537,822.46,231.41z M868.394,217.418h0.484l12.572,27.738h-5.939l-1.295-3.111h-11.16l-1.295,3.111
				h-5.457L868.394,217.418z M872.194,237.312l-1.982-4.771c-0.811-1.941-1.656-4.932-1.656-4.932s-0.812,2.99-1.619,4.932
				l-1.982,4.771H872.194z M892.405,217.662h8.455c8.447,0,14.475,5.619,14.475,13.748c0,8.127-5.984,13.746-14.475,13.746h-8.455
				V217.662z M900.573,240.186c6.107,0,8.898-3.641,8.898-8.775c0-5.137-2.791-8.775-8.898-8.775h-2.504v17.551H900.573z
				 M934.983,217.418h0.486l12.576,27.738h-5.945l-1.293-3.111h-11.162l-1.291,3.111h-5.461L934.983,217.418z M938.784,237.312
				l-1.982-4.771c-0.807-1.941-1.656-4.932-1.656-4.932s-0.805,2.99-1.617,4.932l-1.98,4.771H938.784z M956.411,239.738l4.611-2.666
				c1.213,1.979,2.787,3.436,5.58,3.436c2.346,0,3.838-1.176,3.838-2.791c0-1.939-1.531-2.627-4.121-3.76l-1.416-0.605
				c-4.08-1.74-6.793-3.924-6.793-8.531c0-4.248,3.236-7.482,8.289-7.482c3.6,0,6.189,1.254,8.047,4.527l-4.41,2.832
				c-0.969-1.74-2.02-2.426-3.637-2.426c-1.658,0-2.707,1.051-2.707,2.426c0,1.699,1.049,2.385,3.475,3.436l1.416,0.607
				c4.812,2.064,7.52,4.164,7.52,8.898c0,5.094-4.004,7.883-9.377,7.883C961.468,245.521,958.071,243.014,956.411,239.738z"/>
		</defs>
		<clipPath id="SVGID_2_">
			<use xlink:href="#SVGID_1_"  overflow="visible"/>
		</clipPath>
		<rect x="-238.127" y="-418.09" clip-path="url(#SVGID_2_)" fill="#FFFFFF" width="1523.986" height="1265.928"/>
	</g>
</g>
</svg>
